<svg width="214" height="214" viewBox="0 0 214 214" fill="none" xmlns="http://www.w3.org/2000/svg">
<path d="M206.074 107C206.074 122.795 202.297 138.361 195.059 152.401C187.82 166.44 177.33 178.545 164.463 187.706C112.191 163.314 47.5556 186.259 47.5556 186.259C34.0453 176.127 23.3494 162.709 16.4835 147.279C9.61759 131.85 6.80964 114.922 8.32626 98.1026C9.84288 81.283 15.6337 65.1302 25.1489 51.1782C34.6641 37.2261 47.5878 25.9379 62.6927 18.3854C77.7977 10.833 94.5824 7.26697 111.453 8.02605C128.324 8.78513 144.721 13.8441 159.086 22.7226C173.452 31.601 185.31 44.0042 193.533 58.7544C201.757 73.5046 206.074 90.1122 206.074 107Z" fill="#E7EFFF"/>
<path d="M5.94444 35.6666C9.22747 35.6666 11.8889 33.0052 11.8889 29.7222C11.8889 26.4391 9.22747 23.7777 5.94444 23.7777C2.66142 23.7777 0 26.4391 0 29.7222C0 33.0052 2.66142 35.6666 5.94444 35.6666Z" fill="#00C99F"/>
<path d="M190.044 11.8889C193.327 11.8889 195.988 9.22747 195.988 5.94444C195.988 2.66142 193.327 0 190.044 0C186.761 0 184.099 2.66142 184.099 5.94444C184.099 9.22747 186.761 11.8889 190.044 11.8889Z" fill="#FFA100"/>
<path d="M208.056 188.241C211.339 188.241 214 185.579 214 182.296C214 179.013 211.339 176.352 208.056 176.352C204.773 176.352 202.111 179.013 202.111 182.296C202.111 185.579 204.773 188.241 208.056 188.241Z" fill="#00C99F"/>
<path d="M13.8703 214C17.1534 214 19.8148 211.339 19.8148 208.056C19.8148 204.773 17.1534 202.111 13.8703 202.111C10.5873 202.111 7.9259 204.773 7.9259 208.056C7.9259 211.339 10.5873 214 13.8703 214Z" fill="#FF4D69"/>
<path d="M178.333 63.4073V175.718C174.082 180.095 169.439 184.075 164.463 187.607C102.066 158.518 47.5555 186.259 47.5555 186.259C43.3108 183.084 39.3344 179.565 35.6666 175.738V63.4073C35.6666 55.5245 38.7981 47.9645 44.3721 42.3905C49.9461 36.8165 57.506 33.6851 65.3888 33.6851H148.611C156.494 33.6851 164.054 36.8165 169.628 42.3905C175.202 47.9645 178.333 55.5245 178.333 63.4073Z" fill="#4E6AFF"/>
<path d="M164.463 61.4258V187.706C147.342 199.896 126.789 206.326 105.773 206.066C84.7577 205.806 64.3694 198.869 47.5555 186.259V61.4258C47.5555 57.2216 49.2256 53.1897 52.1984 50.2169C55.1712 47.2441 59.2032 45.574 63.4074 45.574H148.611C152.815 45.574 156.847 47.2441 159.82 50.2169C162.793 53.1897 164.463 57.2216 164.463 61.4258Z" fill="white"/>
<path d="M128.559 63.4073H85.4415C83.682 63.4104 81.9714 62.8279 80.5795 61.7516C79.1875 60.6754 78.1932 59.1665 77.7533 57.4629L73.3148 39.6295H140.685L136.247 57.4629C135.807 59.1665 134.813 60.6754 133.421 61.7516C132.029 62.8279 130.318 63.4104 128.559 63.4073Z" fill="#4E6AFF"/>
<path d="M108.982 53.4999H89.1667C88.1157 53.4999 87.1077 53.0824 86.3645 52.3392C85.6213 51.596 85.2037 50.588 85.2037 49.5369C85.2037 48.4859 85.6213 47.4779 86.3645 46.7347C87.1077 45.9915 88.1157 45.574 89.1667 45.574H108.982C110.033 45.574 111.041 45.9915 111.784 46.7347C112.527 47.4779 112.944 48.4859 112.944 49.5369C112.944 50.588 112.527 51.596 111.784 52.3392C111.041 53.0824 110.033 53.4999 108.982 53.4999Z" fill="#323FD4"/>
<path d="M124.833 53.4999C127.022 53.4999 128.796 51.7256 128.796 49.5369C128.796 47.3482 127.022 45.574 124.833 45.574C122.645 45.574 120.87 47.3482 120.87 49.5369C120.87 51.7256 122.645 53.4999 124.833 53.4999Z" fill="#323FD4"/>
<path d="M31.7037 79.2593H35.6666V95.1112H31.7037C30.6526 95.1112 29.6446 94.6937 28.9014 93.9505C28.1582 93.2073 27.7407 92.1993 27.7407 91.1482V83.2223C27.7407 82.1713 28.1582 81.1633 28.9014 80.4201C29.6446 79.6769 30.6526 79.2593 31.7037 79.2593Z" fill="#323FD4"/>
<path d="M31.7037 103.037H35.6666V122.852H31.7037C30.6526 122.852 29.6446 122.434 28.9014 121.691C28.1582 120.948 27.7407 119.94 27.7407 118.889V107C27.7407 105.949 28.1582 104.941 28.9014 104.198C29.6446 103.455 30.6526 103.037 31.7037 103.037Z" fill="#323FD4"/>
<path d="M178.333 83.2222C194.749 83.2222 208.056 69.9151 208.056 53.4999C208.056 37.0848 194.749 23.7777 178.333 23.7777C161.918 23.7777 148.611 37.0848 148.611 53.4999C148.611 69.9151 161.918 83.2222 178.333 83.2222Z" fill="#00C99F"/>
<path d="M171.577 65.2105L161.669 55.3031C161.02 54.545 160.681 53.5698 160.719 52.5724C160.758 51.575 161.171 50.6289 161.877 49.9231C162.583 49.2174 163.529 48.8039 164.526 48.7654C165.524 48.7268 166.499 49.0661 167.257 49.7153L174.37 56.809L189.41 41.7894C190.168 41.1402 191.143 40.8009 192.141 40.8394C193.138 40.878 194.084 41.2914 194.79 41.9972C195.496 42.703 195.909 43.6491 195.948 44.6465C195.986 45.6439 195.647 46.6191 194.998 47.3772L177.164 65.2105C176.422 65.9486 175.417 66.3629 174.37 66.3629C173.323 66.3629 172.319 65.9486 171.577 65.2105Z" fill="white"/>
<path d="M124.833 116.907C123.257 116.907 121.745 116.281 120.63 115.166C119.515 114.052 118.889 112.54 118.889 110.963V99.0742C118.889 95.921 117.636 92.897 115.407 90.6674C113.177 88.4378 110.153 87.1853 107 87.1853C103.847 87.1853 100.823 88.4378 98.5932 90.6674C96.3636 92.897 95.1111 95.921 95.1111 99.0742V110.963C95.1111 112.54 94.4848 114.052 93.37 115.166C92.2552 116.281 90.7432 116.907 89.1666 116.907C87.59 116.907 86.0781 116.281 84.9633 115.166C83.8485 114.052 83.2222 112.54 83.2222 110.963V99.0742C83.2222 92.7679 85.7273 86.7199 90.1865 82.2607C94.6457 77.8015 100.694 75.2964 107 75.2964C113.306 75.2964 119.354 77.8015 123.813 82.2607C128.273 86.7199 130.778 92.7679 130.778 99.0742V110.963C130.778 112.54 130.151 114.052 129.037 115.166C127.922 116.281 126.41 116.907 124.833 116.907Z" fill="#4E6AFF"/>
<path d="M130.778 107H83.2222C77.7505 107 73.3148 111.436 73.3148 116.907V152.574C73.3148 158.046 77.7505 162.481 83.2222 162.481H130.778C136.25 162.481 140.685 158.046 140.685 152.574V116.907C140.685 111.436 136.25 107 130.778 107Z" fill="#FFA100"/>
<path d="M107 144.648C105.949 144.648 104.941 144.231 104.198 143.487C103.455 142.744 103.037 141.736 103.037 140.685V126.815C103.037 125.764 103.455 124.756 104.198 124.013C104.941 123.269 105.949 122.852 107 122.852C108.051 122.852 109.059 123.269 109.802 124.013C110.546 124.756 110.963 125.764 110.963 126.815V140.685C110.963 141.736 110.546 142.744 109.802 143.487C109.059 144.231 108.051 144.648 107 144.648Z" fill="white"/>
<path d="M132.759 192.204H81.2408C78.6132 192.204 76.0932 191.16 74.2352 189.302C72.3772 187.444 71.3334 184.924 71.3334 182.296C71.3334 179.669 72.3772 177.149 74.2352 175.291C76.0932 173.433 78.6132 172.389 81.2408 172.389H132.759C135.387 172.389 137.907 173.433 139.765 175.291C141.623 177.149 142.667 179.669 142.667 182.296C142.667 184.924 141.623 187.444 139.765 189.302C137.907 191.16 135.387 192.204 132.759 192.204Z" fill="#4E6AFF"/>
<path d="M83.2222 186.259C85.4109 186.259 87.1852 184.485 87.1852 182.296C87.1852 180.108 85.4109 178.333 83.2222 178.333C81.0336 178.333 79.2593 180.108 79.2593 182.296C79.2593 184.485 81.0336 186.259 83.2222 186.259Z" fill="white"/>
<path d="M99.074 186.259C101.263 186.259 103.037 184.485 103.037 182.296C103.037 180.108 101.263 178.333 99.074 178.333C96.8854 178.333 95.1111 180.108 95.1111 182.296C95.1111 184.485 96.8854 186.259 99.074 186.259Z" fill="white"/>
<path d="M114.926 186.259C117.115 186.259 118.889 184.485 118.889 182.296C118.889 180.108 117.115 178.333 114.926 178.333C112.737 178.333 110.963 180.108 110.963 182.296C110.963 184.485 112.737 186.259 114.926 186.259Z" fill="white"/>
<path d="M130.778 186.259C132.966 186.259 134.741 184.485 134.741 182.296C134.741 180.108 132.966 178.333 130.778 178.333C128.589 178.333 126.815 180.108 126.815 182.296C126.815 184.485 128.589 186.259 130.778 186.259Z" fill="white"/>
</svg>
