<svg width="41" height="42" viewBox="0 0 41 42" fill="none" xmlns="http://www.w3.org/2000/svg">
<path d="M20.5001 42C2.30336 41.9813 -6.84955 19.3213 6.00456 6.11575C13.6351 -2.03798 27.3653 -2.03929 34.9957 6.11608C47.8498 19.3228 38.6957 41.9823 20.5001 42ZM20.5001 3.2435C10.9626 3.2435 3.20328 11.1998 3.20328 20.9795C4.1534 44.5087 36.8503 44.5019 37.7969 20.9794C37.7969 11.1999 30.0375 3.2435 20.5001 3.2435ZM27.9587 26.3051L22.8988 21.1166C22.9433 20.3504 22.6246 19.618 22.1009 19.1428C22.1013 19.1256 22.1017 19.1084 22.1017 19.091V9.48403C22.0171 7.30513 18.9824 7.30677 18.8985 9.48403V19.091C18.8985 19.1084 18.8989 19.1256 18.8993 19.1428C17.2245 20.6801 18.3607 23.5592 20.6338 23.4392L25.6937 28.6276C26.3191 29.269 27.3332 29.269 27.9586 28.6276C28.5841 27.9862 28.5841 26.9465 27.9587 26.3051Z" fill="black"/>
</svg>
