<svg width="25" height="25" viewBox="0 0 25 25" fill="none" xmlns="http://www.w3.org/2000/svg">
<g clip-path="url(#clip0_94_9408)">
<path d="M25 18.75C25 19.4867 24.7073 20.1933 24.1864 20.7142C23.6655 21.2351 22.9589 21.5278 22.2222 21.5278H2.77778C2.04107 21.5278 1.33453 21.2351 0.813592 20.7142C0.292658 20.1933 0 19.4867 0 18.75V6.25001C0 5.51329 0.292658 4.80676 0.813592 4.28582C1.33453 3.76489 2.04107 3.47223 2.77778 3.47223H22.2222C22.9589 3.47223 23.6655 3.76489 24.1864 4.28582C24.7073 4.80676 25 5.51329 25 6.25001V18.75Z" fill="#141414"/>
<path d="M0 9.02777H25V15.9722H0V9.02777Z" fill="#EEEEEE"/>
<path d="M22.2222 3.47223H2.77778C2.04107 3.47223 1.33453 3.76489 0.813592 4.28582C0.292658 4.80676 0 5.51329 0 6.25001L0 9.02778H25V6.25001C25 5.51329 24.7073 4.80676 24.1864 4.28582C23.6655 3.76489 22.9589 3.47223 22.2222 3.47223Z" fill="#CE1225"/>
<path d="M10.243 14.9736C10.243 14.9736 10.2542 15.1472 10.4055 15.234C10.4055 15.234 10.3625 15.3646 10.525 15.4403C10.6875 15.516 11.2736 15.6354 12.2937 15.6354C13.3139 15.6354 13.8889 15.5271 14.041 15.4507C14.193 15.375 14.2035 15.2014 14.2035 15.2014C14.2035 15.2014 14.366 15.1146 14.3555 15.0063C14.3444 14.8979 14.1278 14.7785 14.1278 14.7785C14.1278 14.7785 14.0736 14.6375 13.9215 14.5833C13.7694 14.5292 13.2812 14.8222 12.3479 14.7785C11.4146 14.7354 10.8833 14.5938 10.7097 14.6049C10.5361 14.616 10.4604 14.7896 10.4604 14.7896C10.4604 14.7896 10.2646 14.8764 10.243 14.9736Z" fill="#BF9300"/>
<path d="M10.3625 14.9632C10.3535 15.0278 10.493 15.1694 10.493 15.1694C10.493 15.1694 10.493 15.3319 10.634 15.3757C10.775 15.4194 11.35 15.5278 12.2833 15.5167C13.2166 15.5056 13.8785 15.4514 13.9541 15.3861C14.0298 15.3208 14.0951 15.1799 14.0951 15.1799C14.0951 15.1799 14.2472 15.0715 14.2361 14.9847C14.225 14.8979 14.0083 14.8437 14.0083 14.8437C14.0083 14.8437 13.9472 14.7132 13.875 14.659C13.8028 14.6049 13.3361 14.8757 12.3375 14.8757C11.3604 14.8757 10.7965 14.6368 10.6993 14.6479C10.6014 14.659 10.5368 14.8431 10.5368 14.8431C10.5368 14.8431 10.3736 14.8875 10.3625 14.9632Z" fill="#EEEEEE"/>
<path d="M14.4854 10.7528C14.4854 10.7528 14.4638 10.2431 13.9972 10.3076C13.5305 10.3729 13.4979 10.6007 12.9986 10.6549L12.8958 10.6646C12.8125 10.4388 12.7665 10.201 12.7597 9.96042C12.7597 9.63472 12.8576 9.49375 12.5208 9.33125C12.1847 9.16875 12.1194 9.32014 12.1194 9.32014C12.1194 9.32014 11.859 9.18958 11.7395 9.2875C11.6201 9.38542 11.6854 9.63472 11.7395 9.55903C11.7937 9.48333 12.0111 9.7 12.0111 9.7C12.0847 10.0604 11.8757 10.4507 11.7326 10.6681C11.6833 10.6632 11.6437 10.6611 11.5882 10.6549C11.0888 10.6007 11.0562 10.3729 10.5895 10.3076C10.1229 10.2424 10.1013 10.7528 10.1013 10.7528L9.91663 14.6917L10.2965 14.3986L10.2986 14.3521L11.0888 13.65L11.2208 13.5181L10.8937 14.4743C10.8937 14.4743 10.3944 14.4417 10.5354 14.8431C10.5354 14.8431 10.6111 14.6153 10.7416 14.6583C10.8722 14.7014 11.2513 14.7993 11.2513 14.7993L11.3819 15.0056L11.5444 14.8535L12.0541 14.8319C12.0541 14.8319 12.2166 14.875 12.2062 15.0167C12.2361 14.9557 12.2451 14.8867 12.2319 14.8201L12.3854 14.8097C12.3689 14.8796 12.3772 14.953 12.409 15.0174C12.3979 14.8764 12.5611 14.8326 12.5611 14.8326L13.0708 14.8542L13.234 15.0062L13.3645 14.8C13.3645 14.8 13.7437 14.7021 13.8736 14.659C14.0034 14.616 14.0798 14.8437 14.0798 14.8437C14.2208 14.4424 13.7215 14.475 13.7215 14.475L13.4097 13.5632L13.4972 13.6507L14.2875 14.3528L14.2895 14.3993L14.6694 14.6924L14.4854 10.7528ZM12.3277 13.1403C11.5451 12.6569 11.4805 11.4368 11.4805 11.4368C11.4805 11.4368 11.9645 11.4118 12.3159 11.1653C12.6326 11.4465 13.1729 11.4146 13.1729 11.4146C13.1729 11.4146 13.1361 12.6396 12.3277 13.1403ZM14.1166 10.6014L13.4548 11.2306L13.3437 11.275C13.2298 11.2792 12.6757 11.2806 12.3263 10.9701C11.8923 11.2743 11.2958 11.2958 11.2958 11.2958L11.2034 11.259L10.4708 10.6014L10.2784 10.6806C10.2868 10.6021 10.3298 10.4257 10.5687 10.4604C10.9604 10.5167 11.1222 10.7319 11.5347 10.775L11.6513 10.7868L11.6104 10.8396C11.6743 10.8396 11.7687 10.8208 11.8382 10.8056L11.9166 10.8132L11.8812 10.9368C11.9368 10.9201 12.0173 10.8722 12.0833 10.8299L12.2638 10.8472L12.3048 10.9042L12.4423 10.8354L12.5347 10.8264C12.6145 10.8729 12.7284 10.9146 12.7284 10.9146L12.75 10.8062C12.8479 10.8715 13.0104 10.8715 13.0104 10.8715C12.9916 10.8562 12.9729 10.8174 12.9534 10.784L13.0534 10.7736C13.4659 10.7306 13.627 10.5153 14.0194 10.459C14.2583 10.425 14.3013 10.6007 14.3097 10.6792L14.1166 10.6014Z" fill="#BF9300"/>
<path d="M12.066 13.1187L11.675 14.6049L11.0243 14.475L11.6972 12.5653L12.066 13.1187ZM12.5514 13.1187L12.9417 14.6049L13.593 14.475L12.9201 12.5653L12.5514 13.1187Z" fill="#EEEEEE"/>
<path d="M11.6431 11.5563C11.6431 11.5563 11.6972 12.1854 11.9792 12.6736V11.4153C11.9792 11.4153 11.7945 11.5236 11.6431 11.5563ZM12.9993 11.5778C12.9993 11.5778 12.9451 12.207 12.6632 12.6951V11.4368C12.6625 11.4368 12.8472 11.5451 12.9993 11.5778Z" fill="#BF9300"/>
<path d="M11.7729 9.42917C11.7729 9.42917 11.8486 9.35348 12.066 9.50487C12.207 9.60348 12.332 9.67848 12.332 9.67848C12.332 9.67848 12.4209 9.58473 12.5514 9.60625C12.682 9.62778 12.6091 9.80903 12.6306 10.1882C12.6521 10.5681 12.8042 10.7306 12.8042 10.7306L12.6195 10.6222L12.6306 10.7417L12.4243 10.6438L12.3264 10.7847L12.2285 10.6326L12.0702 10.7292L12.0223 10.6L11.8375 10.6979C11.8375 10.6979 12.1091 10.3618 12.1306 9.99237C12.1368 9.88195 12.1091 9.63403 12.1091 9.63403C12.1091 9.63403 11.9361 9.41806 11.7729 9.42917Z" fill="#EEEEEE"/>
<path d="M10.7965 15.0389C10.6722 15.1132 10.7208 15.1583 10.7965 15.191C10.8722 15.2236 11.3278 15.2785 12.2507 15.2993C13.1945 15.3208 13.7806 15.2125 13.8563 15.1688C13.932 15.1257 13.9431 15.0493 13.8132 15.0278C13.6826 15.0063 13.032 15.1146 12.2396 15.1146C11.2632 15.1153 10.8507 15.0063 10.7965 15.0389Z" fill="#BF9300"/>
</g>
<defs>
<clipPath id="clip0_94_9408">
<rect width="25" height="25" fill="white"/>
</clipPath>
</defs>
</svg>
