<svg width="19" height="29" viewBox="0 0 19 29" fill="none" xmlns="http://www.w3.org/2000/svg">
<mask id="path-1-outside-1_94_10906" maskUnits="userSpaceOnUse" x="0" y="0" width="19" height="29" fill="black">
<rect fill="white" width="19" height="29"/>
<path d="M12.3429 28C11.8411 27.9993 11.3601 27.7872 11.0053 27.41C10.6505 27.0329 10.4509 26.5215 10.4503 25.9882V20.851C10.4503 20.8148 10.4433 20.779 10.4297 20.7458C10.4161 20.7126 10.3962 20.6828 10.3714 20.6581L8.9309 19.2329L8.03578 21.2535C8.00445 21.3241 7.96657 21.3913 7.9227 21.4539L4.56053 26.2352C4.42099 26.4716 4.23699 26.6749 4.02006 26.8323C3.80314 26.9897 3.55798 27.0977 3.29994 27.1497C2.92897 27.2262 2.54503 27.1854 2.19565 27.0324C1.84627 26.8793 1.5468 26.6207 1.33431 26.2886C1.12183 25.9564 1.00566 25.5654 1.0002 25.1637C0.994742 24.7621 1.10023 24.3676 1.30359 24.0291L4.40693 19.3195C4.42281 19.2955 4.4347 19.2687 4.44207 19.2404L6.47728 11.5956C6.48918 11.5525 6.49031 11.5068 6.48056 11.463C6.47081 11.4192 6.45052 11.3789 6.42167 11.346C6.40779 11.3301 6.39225 11.316 6.37537 11.3038L4.90658 14.8045C4.81963 15.0185 4.69381 15.2121 4.53635 15.3742C4.37888 15.5364 4.19285 15.664 3.98893 15.7496C3.785 15.8352 3.56718 15.8772 3.34796 15.8732C3.12873 15.8692 2.9124 15.8193 2.71136 15.7262C2.51033 15.6332 2.32854 15.4989 2.17641 15.3311C2.02428 15.1633 1.9048 14.9652 1.82481 14.7482C1.74483 14.5312 1.70592 14.2996 1.7103 14.0666C1.71468 13.8336 1.76228 13.6038 1.85036 13.3904L3.79192 8.79544C3.95084 8.46415 4.19965 8.19119 4.50615 8.01189C4.52357 8.0021 4.54152 7.99344 4.55992 7.98597L8.57473 6.37801C8.84316 6.26951 9.14106 6.2782 9.40349 6.40218L11.8885 7.57244C12.113 7.67838 12.2975 7.86128 12.4126 8.09188L13.1169 9.50604C13.1406 9.55301 13.177 9.59141 13.2213 9.61634L17.067 11.767C17.2693 11.8792 17.4487 12.0326 17.5952 12.2185C17.7416 12.4044 17.8521 12.6192 17.9204 12.8505C17.9887 13.0819 18.0134 13.3253 17.9931 13.5668C17.9728 13.8083 17.908 14.0432 17.8022 14.258C17.6964 14.4728 17.5519 14.6634 17.3768 14.8188C17.2016 14.9742 16.9994 15.0914 16.7817 15.1637C16.5639 15.2359 16.3349 15.2619 16.1077 15.24C15.8805 15.2181 15.6596 15.1488 15.4576 15.0361C15.4556 15.0348 13.0795 13.6905 11.8439 12.9887C11.8114 12.9704 11.7755 12.9599 11.7387 12.9582C11.702 12.9564 11.6653 12.9634 11.6314 12.9786C11.5975 12.9938 11.5673 13.0168 11.5428 13.046C11.5183 13.0752 11.5003 13.1098 11.49 13.1473L11.0134 14.877C11.0029 14.9157 11.0008 14.9565 11.0073 14.9961C11.0138 15.0358 11.0288 15.0734 11.0511 15.106L13.9876 19.381C14.1492 19.6154 14.2361 19.8985 14.2357 20.1892V25.9882C14.2351 26.5216 14.0355 27.0329 13.6806 27.4101C13.3258 27.7872 12.8447 27.9994 12.3429 28ZM8.79489 18.0336C8.90189 18.0335 9.00494 18.0766 9.08327 18.154L10.9483 19.9993C11.0582 20.1084 11.1458 20.2402 11.2058 20.3867C11.2658 20.5332 11.2969 20.6912 11.2971 20.851V25.9882C11.2971 26.1342 11.3241 26.2787 11.3767 26.4136C11.4293 26.5485 11.5063 26.671 11.6034 26.7743C11.7006 26.8775 11.8159 26.9594 11.9428 27.0153C12.0697 27.0711 12.2057 27.0999 12.343 27.0999C12.4804 27.0999 12.6164 27.0711 12.7433 27.0153C12.8702 26.9594 12.9855 26.8775 13.0826 26.7743C13.1797 26.671 13.2568 26.5485 13.3093 26.4136C13.3619 26.2787 13.3889 26.1342 13.3889 25.9882V20.1892C13.389 20.0893 13.3591 19.992 13.3036 19.9114L10.3672 15.6369C10.2688 15.4926 10.2027 15.3264 10.1739 15.1508C10.145 14.9753 10.1543 14.7951 10.201 14.6239L10.6775 12.8942C10.7232 12.7283 10.8031 12.5752 10.9114 12.4462C11.0197 12.3172 11.1538 12.2156 11.3037 12.1486C11.4537 12.0816 11.6158 12.051 11.7783 12.0591C11.9408 12.0671 12.0996 12.1136 12.2431 12.1951C13.478 12.8969 15.8533 14.2403 15.8533 14.2403C15.961 14.2999 16.079 14.3355 16.2002 14.3448C16.3213 14.3541 16.4429 14.3369 16.5575 14.2943C16.6721 14.2516 16.7773 14.1845 16.8666 14.097C16.9558 14.0095 17.0273 13.9034 17.0765 13.7854C17.1677 13.5657 17.1769 13.3174 17.1024 13.0908C17.0278 12.8641 16.875 12.676 16.6748 12.5646L16.6732 12.5637L12.8262 10.4122C12.6312 10.3033 12.4718 10.1344 12.3687 9.92747L11.6642 8.51287C11.6384 8.46072 11.5967 8.41937 11.546 8.39554L9.06093 7.22528C9.00165 7.19744 8.93443 7.19555 8.87384 7.22001L4.88881 8.81566C4.74602 8.90459 4.62957 9.0343 4.55267 9.19006L2.62434 13.7556C2.58164 13.8607 2.55886 13.9738 2.55731 14.0883C2.55576 14.2028 2.57546 14.3166 2.61529 14.423C2.65512 14.5294 2.7143 14.6264 2.78944 14.7085C2.86458 14.7906 2.9542 14.8562 3.05319 14.9014C3.15219 14.9467 3.2586 14.9708 3.36635 14.9723C3.4741 14.9738 3.58107 14.9527 3.68115 14.9102C3.78122 14.8678 3.87244 14.8047 3.94959 14.7248C4.02673 14.6448 4.08829 14.5495 4.13075 14.4442L5.72625 10.6398C5.75413 10.5735 5.7967 10.5153 5.85034 10.4702C5.90398 10.4251 5.96708 10.3945 6.03427 10.381C6.21758 10.344 6.40676 10.3574 6.58383 10.4199C6.76091 10.4824 6.92001 10.592 7.04604 10.7383C7.17207 10.8845 7.26083 11.0626 7.30391 11.2556C7.34699 11.4485 7.34296 11.65 7.29219 11.8409L5.25698 19.4856C5.22372 19.6107 5.17089 19.7289 5.1007 19.8354L2.00706 24.5296C1.86542 24.775 1.81512 25.0678 1.86602 25.3505C1.91692 25.6333 2.06535 25.8856 2.28221 26.0581C2.40342 26.1543 2.54223 26.2226 2.68973 26.2584C2.83722 26.2943 2.99015 26.297 3.13868 26.2663C3.28721 26.2356 3.42806 26.1723 3.5522 26.0804C3.67634 25.9884 3.78102 25.8699 3.85952 25.7324L7.24403 20.916C7.25393 20.9019 7.26244 20.8867 7.26943 20.8707L8.41179 18.292C8.44013 18.2279 8.48234 18.1718 8.53498 18.1284C8.58761 18.0849 8.64918 18.0553 8.71464 18.042C8.74107 18.0364 8.76795 18.0336 8.79489 18.0336ZM11.6177 6.47381C11.1084 6.47381 10.6106 6.31329 10.1872 6.01256C9.7637 5.71182 9.43367 5.28437 9.23877 4.78427C9.04388 4.28417 8.99289 3.73387 9.09224 3.20296C9.1916 2.67205 9.43684 2.18438 9.79695 1.80162C10.1571 1.41886 10.6159 1.15819 11.1154 1.05259C11.6149 0.946986 12.1326 1.00119 12.6031 1.20834C13.0736 1.41549 13.4758 1.76628 13.7587 2.21636C14.0417 2.66644 14.1927 3.1956 14.1927 3.7369C14.1919 4.46252 13.9203 5.15817 13.4376 5.67126C12.9549 6.18435 12.3004 6.47297 11.6177 6.47381ZM11.6177 1.89998C11.2759 1.89998 10.9418 2.00771 10.6576 2.20955C10.3734 2.41139 10.1519 2.69827 10.021 3.03392C9.89024 3.36957 9.85602 3.73891 9.9227 4.09524C9.98939 4.45156 10.154 4.77887 10.3957 5.03576C10.6374 5.29266 10.9453 5.46761 11.2805 5.53848C11.6158 5.60936 11.9633 5.57298 12.2791 5.43395C12.5948 5.29492 12.8648 5.05948 13.0547 4.7574C13.2446 4.45533 13.3459 4.10018 13.3459 3.73688C13.3454 3.24986 13.1632 2.78295 12.8392 2.43858C12.5152 2.09421 12.0759 1.90051 11.6177 1.89998Z"/>
</mask>
<path d="M12.3429 28C11.8411 27.9993 11.3601 27.7872 11.0053 27.41C10.6505 27.0329 10.4509 26.5215 10.4503 25.9882V20.851C10.4503 20.8148 10.4433 20.779 10.4297 20.7458C10.4161 20.7126 10.3962 20.6828 10.3714 20.6581L8.9309 19.2329L8.03578 21.2535C8.00445 21.3241 7.96657 21.3913 7.9227 21.4539L4.56053 26.2352C4.42099 26.4716 4.23699 26.6749 4.02006 26.8323C3.80314 26.9897 3.55798 27.0977 3.29994 27.1497C2.92897 27.2262 2.54503 27.1854 2.19565 27.0324C1.84627 26.8793 1.5468 26.6207 1.33431 26.2886C1.12183 25.9564 1.00566 25.5654 1.0002 25.1637C0.994742 24.7621 1.10023 24.3676 1.30359 24.0291L4.40693 19.3195C4.42281 19.2955 4.4347 19.2687 4.44207 19.2404L6.47728 11.5956C6.48918 11.5525 6.49031 11.5068 6.48056 11.463C6.47081 11.4192 6.45052 11.3789 6.42167 11.346C6.40779 11.3301 6.39225 11.316 6.37537 11.3038L4.90658 14.8045C4.81963 15.0185 4.69381 15.2121 4.53635 15.3742C4.37888 15.5364 4.19285 15.664 3.98893 15.7496C3.785 15.8352 3.56718 15.8772 3.34796 15.8732C3.12873 15.8692 2.9124 15.8193 2.71136 15.7262C2.51033 15.6332 2.32854 15.4989 2.17641 15.3311C2.02428 15.1633 1.9048 14.9652 1.82481 14.7482C1.74483 14.5312 1.70592 14.2996 1.7103 14.0666C1.71468 13.8336 1.76228 13.6038 1.85036 13.3904L3.79192 8.79544C3.95084 8.46415 4.19965 8.19119 4.50615 8.01189C4.52357 8.0021 4.54152 7.99344 4.55992 7.98597L8.57473 6.37801C8.84316 6.26951 9.14106 6.2782 9.40349 6.40218L11.8885 7.57244C12.113 7.67838 12.2975 7.86128 12.4126 8.09188L13.1169 9.50604C13.1406 9.55301 13.177 9.59141 13.2213 9.61634L17.067 11.767C17.2693 11.8792 17.4487 12.0326 17.5952 12.2185C17.7416 12.4044 17.8521 12.6192 17.9204 12.8505C17.9887 13.0819 18.0134 13.3253 17.9931 13.5668C17.9728 13.8083 17.908 14.0432 17.8022 14.258C17.6964 14.4728 17.5519 14.6634 17.3768 14.8188C17.2016 14.9742 16.9994 15.0914 16.7817 15.1637C16.5639 15.2359 16.3349 15.2619 16.1077 15.24C15.8805 15.2181 15.6596 15.1488 15.4576 15.0361C15.4556 15.0348 13.0795 13.6905 11.8439 12.9887C11.8114 12.9704 11.7755 12.9599 11.7387 12.9582C11.702 12.9564 11.6653 12.9634 11.6314 12.9786C11.5975 12.9938 11.5673 13.0168 11.5428 13.046C11.5183 13.0752 11.5003 13.1098 11.49 13.1473L11.0134 14.877C11.0029 14.9157 11.0008 14.9565 11.0073 14.9961C11.0138 15.0358 11.0288 15.0734 11.0511 15.106L13.9876 19.381C14.1492 19.6154 14.2361 19.8985 14.2357 20.1892V25.9882C14.2351 26.5216 14.0355 27.0329 13.6806 27.4101C13.3258 27.7872 12.8447 27.9994 12.3429 28ZM8.79489 18.0336C8.90189 18.0335 9.00494 18.0766 9.08327 18.154L10.9483 19.9993C11.0582 20.1084 11.1458 20.2402 11.2058 20.3867C11.2658 20.5332 11.2969 20.6912 11.2971 20.851V25.9882C11.2971 26.1342 11.3241 26.2787 11.3767 26.4136C11.4293 26.5485 11.5063 26.671 11.6034 26.7743C11.7006 26.8775 11.8159 26.9594 11.9428 27.0153C12.0697 27.0711 12.2057 27.0999 12.343 27.0999C12.4804 27.0999 12.6164 27.0711 12.7433 27.0153C12.8702 26.9594 12.9855 26.8775 13.0826 26.7743C13.1797 26.671 13.2568 26.5485 13.3093 26.4136C13.3619 26.2787 13.3889 26.1342 13.3889 25.9882V20.1892C13.389 20.0893 13.3591 19.992 13.3036 19.9114L10.3672 15.6369C10.2688 15.4926 10.2027 15.3264 10.1739 15.1508C10.145 14.9753 10.1543 14.7951 10.201 14.6239L10.6775 12.8942C10.7232 12.7283 10.8031 12.5752 10.9114 12.4462C11.0197 12.3172 11.1538 12.2156 11.3037 12.1486C11.4537 12.0816 11.6158 12.051 11.7783 12.0591C11.9408 12.0671 12.0996 12.1136 12.2431 12.1951C13.478 12.8969 15.8533 14.2403 15.8533 14.2403C15.961 14.2999 16.079 14.3355 16.2002 14.3448C16.3213 14.3541 16.4429 14.3369 16.5575 14.2943C16.6721 14.2516 16.7773 14.1845 16.8666 14.097C16.9558 14.0095 17.0273 13.9034 17.0765 13.7854C17.1677 13.5657 17.1769 13.3174 17.1024 13.0908C17.0278 12.8641 16.875 12.676 16.6748 12.5646L16.6732 12.5637L12.8262 10.4122C12.6312 10.3033 12.4718 10.1344 12.3687 9.92747L11.6642 8.51287C11.6384 8.46072 11.5967 8.41937 11.546 8.39554L9.06093 7.22528C9.00165 7.19744 8.93443 7.19555 8.87384 7.22001L4.88881 8.81566C4.74602 8.90459 4.62957 9.0343 4.55267 9.19006L2.62434 13.7556C2.58164 13.8607 2.55886 13.9738 2.55731 14.0883C2.55576 14.2028 2.57546 14.3166 2.61529 14.423C2.65512 14.5294 2.7143 14.6264 2.78944 14.7085C2.86458 14.7906 2.9542 14.8562 3.05319 14.9014C3.15219 14.9467 3.2586 14.9708 3.36635 14.9723C3.4741 14.9738 3.58107 14.9527 3.68115 14.9102C3.78122 14.8678 3.87244 14.8047 3.94959 14.7248C4.02673 14.6448 4.08829 14.5495 4.13075 14.4442L5.72625 10.6398C5.75413 10.5735 5.7967 10.5153 5.85034 10.4702C5.90398 10.4251 5.96708 10.3945 6.03427 10.381C6.21758 10.344 6.40676 10.3574 6.58383 10.4199C6.76091 10.4824 6.92001 10.592 7.04604 10.7383C7.17207 10.8845 7.26083 11.0626 7.30391 11.2556C7.34699 11.4485 7.34296 11.65 7.29219 11.8409L5.25698 19.4856C5.22372 19.6107 5.17089 19.7289 5.1007 19.8354L2.00706 24.5296C1.86542 24.775 1.81512 25.0678 1.86602 25.3505C1.91692 25.6333 2.06535 25.8856 2.28221 26.0581C2.40342 26.1543 2.54223 26.2226 2.68973 26.2584C2.83722 26.2943 2.99015 26.297 3.13868 26.2663C3.28721 26.2356 3.42806 26.1723 3.5522 26.0804C3.67634 25.9884 3.78102 25.8699 3.85952 25.7324L7.24403 20.916C7.25393 20.9019 7.26244 20.8867 7.26943 20.8707L8.41179 18.292C8.44013 18.2279 8.48234 18.1718 8.53498 18.1284C8.58761 18.0849 8.64918 18.0553 8.71464 18.042C8.74107 18.0364 8.76795 18.0336 8.79489 18.0336ZM11.6177 6.47381C11.1084 6.47381 10.6106 6.31329 10.1872 6.01256C9.7637 5.71182 9.43367 5.28437 9.23877 4.78427C9.04388 4.28417 8.99289 3.73387 9.09224 3.20296C9.1916 2.67205 9.43684 2.18438 9.79695 1.80162C10.1571 1.41886 10.6159 1.15819 11.1154 1.05259C11.6149 0.946986 12.1326 1.00119 12.6031 1.20834C13.0736 1.41549 13.4758 1.76628 13.7587 2.21636C14.0417 2.66644 14.1927 3.1956 14.1927 3.7369C14.1919 4.46252 13.9203 5.15817 13.4376 5.67126C12.9549 6.18435 12.3004 6.47297 11.6177 6.47381ZM11.6177 1.89998C11.2759 1.89998 10.9418 2.00771 10.6576 2.20955C10.3734 2.41139 10.1519 2.69827 10.021 3.03392C9.89024 3.36957 9.85602 3.73891 9.9227 4.09524C9.98939 4.45156 10.154 4.77887 10.3957 5.03576C10.6374 5.29266 10.9453 5.46761 11.2805 5.53848C11.6158 5.60936 11.9633 5.57298 12.2791 5.43395C12.5948 5.29492 12.8648 5.05948 13.0547 4.7574C13.2446 4.45533 13.3459 4.10018 13.3459 3.73688C13.3454 3.24986 13.1632 2.78295 12.8392 2.43858C12.5152 2.09421 12.0759 1.90051 11.6177 1.89998Z" fill="#1F8189"/>
<path d="M12.3429 28C11.8411 27.9993 11.3601 27.7872 11.0053 27.41C10.6505 27.0329 10.4509 26.5215 10.4503 25.9882V20.851C10.4503 20.8148 10.4433 20.779 10.4297 20.7458C10.4161 20.7126 10.3962 20.6828 10.3714 20.6581L8.9309 19.2329L8.03578 21.2535C8.00445 21.3241 7.96657 21.3913 7.9227 21.4539L4.56053 26.2352C4.42099 26.4716 4.23699 26.6749 4.02006 26.8323C3.80314 26.9897 3.55798 27.0977 3.29994 27.1497C2.92897 27.2262 2.54503 27.1854 2.19565 27.0324C1.84627 26.8793 1.5468 26.6207 1.33431 26.2886C1.12183 25.9564 1.00566 25.5654 1.0002 25.1637C0.994742 24.7621 1.10023 24.3676 1.30359 24.0291L4.40693 19.3195C4.42281 19.2955 4.4347 19.2687 4.44207 19.2404L6.47728 11.5956C6.48918 11.5525 6.49031 11.5068 6.48056 11.463C6.47081 11.4192 6.45052 11.3789 6.42167 11.346C6.40779 11.3301 6.39225 11.316 6.37537 11.3038L4.90658 14.8045C4.81963 15.0185 4.69381 15.2121 4.53635 15.3742C4.37888 15.5364 4.19285 15.664 3.98893 15.7496C3.785 15.8352 3.56718 15.8772 3.34796 15.8732C3.12873 15.8692 2.9124 15.8193 2.71136 15.7262C2.51033 15.6332 2.32854 15.4989 2.17641 15.3311C2.02428 15.1633 1.9048 14.9652 1.82481 14.7482C1.74483 14.5312 1.70592 14.2996 1.7103 14.0666C1.71468 13.8336 1.76228 13.6038 1.85036 13.3904L3.79192 8.79544C3.95084 8.46415 4.19965 8.19119 4.50615 8.01189C4.52357 8.0021 4.54152 7.99344 4.55992 7.98597L8.57473 6.37801C8.84316 6.26951 9.14106 6.2782 9.40349 6.40218L11.8885 7.57244C12.113 7.67838 12.2975 7.86128 12.4126 8.09188L13.1169 9.50604C13.1406 9.55301 13.177 9.59141 13.2213 9.61634L17.067 11.767C17.2693 11.8792 17.4487 12.0326 17.5952 12.2185C17.7416 12.4044 17.8521 12.6192 17.9204 12.8505C17.9887 13.0819 18.0134 13.3253 17.9931 13.5668C17.9728 13.8083 17.908 14.0432 17.8022 14.258C17.6964 14.4728 17.5519 14.6634 17.3768 14.8188C17.2016 14.9742 16.9994 15.0914 16.7817 15.1637C16.5639 15.2359 16.3349 15.2619 16.1077 15.24C15.8805 15.2181 15.6596 15.1488 15.4576 15.0361C15.4556 15.0348 13.0795 13.6905 11.8439 12.9887C11.8114 12.9704 11.7755 12.9599 11.7387 12.9582C11.702 12.9564 11.6653 12.9634 11.6314 12.9786C11.5975 12.9938 11.5673 13.0168 11.5428 13.046C11.5183 13.0752 11.5003 13.1098 11.49 13.1473L11.0134 14.877C11.0029 14.9157 11.0008 14.9565 11.0073 14.9961C11.0138 15.0358 11.0288 15.0734 11.0511 15.106L13.9876 19.381C14.1492 19.6154 14.2361 19.8985 14.2357 20.1892V25.9882C14.2351 26.5216 14.0355 27.0329 13.6806 27.4101C13.3258 27.7872 12.8447 27.9994 12.3429 28ZM8.79489 18.0336C8.90189 18.0335 9.00494 18.0766 9.08327 18.154L10.9483 19.9993C11.0582 20.1084 11.1458 20.2402 11.2058 20.3867C11.2658 20.5332 11.2969 20.6912 11.2971 20.851V25.9882C11.2971 26.1342 11.3241 26.2787 11.3767 26.4136C11.4293 26.5485 11.5063 26.671 11.6034 26.7743C11.7006 26.8775 11.8159 26.9594 11.9428 27.0153C12.0697 27.0711 12.2057 27.0999 12.343 27.0999C12.4804 27.0999 12.6164 27.0711 12.7433 27.0153C12.8702 26.9594 12.9855 26.8775 13.0826 26.7743C13.1797 26.671 13.2568 26.5485 13.3093 26.4136C13.3619 26.2787 13.3889 26.1342 13.3889 25.9882V20.1892C13.389 20.0893 13.3591 19.992 13.3036 19.9114L10.3672 15.6369C10.2688 15.4926 10.2027 15.3264 10.1739 15.1508C10.145 14.9753 10.1543 14.7951 10.201 14.6239L10.6775 12.8942C10.7232 12.7283 10.8031 12.5752 10.9114 12.4462C11.0197 12.3172 11.1538 12.2156 11.3037 12.1486C11.4537 12.0816 11.6158 12.051 11.7783 12.0591C11.9408 12.0671 12.0996 12.1136 12.2431 12.1951C13.478 12.8969 15.8533 14.2403 15.8533 14.2403C15.961 14.2999 16.079 14.3355 16.2002 14.3448C16.3213 14.3541 16.4429 14.3369 16.5575 14.2943C16.6721 14.2516 16.7773 14.1845 16.8666 14.097C16.9558 14.0095 17.0273 13.9034 17.0765 13.7854C17.1677 13.5657 17.1769 13.3174 17.1024 13.0908C17.0278 12.8641 16.875 12.676 16.6748 12.5646L16.6732 12.5637L12.8262 10.4122C12.6312 10.3033 12.4718 10.1344 12.3687 9.92747L11.6642 8.51287C11.6384 8.46072 11.5967 8.41937 11.546 8.39554L9.06093 7.22528C9.00165 7.19744 8.93443 7.19555 8.87384 7.22001L4.88881 8.81566C4.74602 8.90459 4.62957 9.0343 4.55267 9.19006L2.62434 13.7556C2.58164 13.8607 2.55886 13.9738 2.55731 14.0883C2.55576 14.2028 2.57546 14.3166 2.61529 14.423C2.65512 14.5294 2.7143 14.6264 2.78944 14.7085C2.86458 14.7906 2.9542 14.8562 3.05319 14.9014C3.15219 14.9467 3.2586 14.9708 3.36635 14.9723C3.4741 14.9738 3.58107 14.9527 3.68115 14.9102C3.78122 14.8678 3.87244 14.8047 3.94959 14.7248C4.02673 14.6448 4.08829 14.5495 4.13075 14.4442L5.72625 10.6398C5.75413 10.5735 5.7967 10.5153 5.85034 10.4702C5.90398 10.4251 5.96708 10.3945 6.03427 10.381C6.21758 10.344 6.40676 10.3574 6.58383 10.4199C6.76091 10.4824 6.92001 10.592 7.04604 10.7383C7.17207 10.8845 7.26083 11.0626 7.30391 11.2556C7.34699 11.4485 7.34296 11.65 7.29219 11.8409L5.25698 19.4856C5.22372 19.6107 5.17089 19.7289 5.1007 19.8354L2.00706 24.5296C1.86542 24.775 1.81512 25.0678 1.86602 25.3505C1.91692 25.6333 2.06535 25.8856 2.28221 26.0581C2.40342 26.1543 2.54223 26.2226 2.68973 26.2584C2.83722 26.2943 2.99015 26.297 3.13868 26.2663C3.28721 26.2356 3.42806 26.1723 3.5522 26.0804C3.67634 25.9884 3.78102 25.8699 3.85952 25.7324L7.24403 20.916C7.25393 20.9019 7.26244 20.8867 7.26943 20.8707L8.41179 18.292C8.44013 18.2279 8.48234 18.1718 8.53498 18.1284C8.58761 18.0849 8.64918 18.0553 8.71464 18.042C8.74107 18.0364 8.76795 18.0336 8.79489 18.0336ZM11.6177 6.47381C11.1084 6.47381 10.6106 6.31329 10.1872 6.01256C9.7637 5.71182 9.43367 5.28437 9.23877 4.78427C9.04388 4.28417 8.99289 3.73387 9.09224 3.20296C9.1916 2.67205 9.43684 2.18438 9.79695 1.80162C10.1571 1.41886 10.6159 1.15819 11.1154 1.05259C11.6149 0.946986 12.1326 1.00119 12.6031 1.20834C13.0736 1.41549 13.4758 1.76628 13.7587 2.21636C14.0417 2.66644 14.1927 3.1956 14.1927 3.7369C14.1919 4.46252 13.9203 5.15817 13.4376 5.67126C12.9549 6.18435 12.3004 6.47297 11.6177 6.47381ZM11.6177 1.89998C11.2759 1.89998 10.9418 2.00771 10.6576 2.20955C10.3734 2.41139 10.1519 2.69827 10.021 3.03392C9.89024 3.36957 9.85602 3.73891 9.9227 4.09524C9.98939 4.45156 10.154 4.77887 10.3957 5.03576C10.6374 5.29266 10.9453 5.46761 11.2805 5.53848C11.6158 5.60936 11.9633 5.57298 12.2791 5.43395C12.5948 5.29492 12.8648 5.05948 13.0547 4.7574C13.2446 4.45533 13.3459 4.10018 13.3459 3.73688C13.3454 3.24986 13.1632 2.78295 12.8392 2.43858C12.5152 2.09421 12.0759 1.90051 11.6177 1.89998Z" stroke="#1F8189" mask="url(#path-1-outside-1_94_10906)"/>
</svg>
