<svg width="42" height="42" viewBox="0 0 42 42" fill="none" xmlns="http://www.w3.org/2000/svg">
<path d="M34.1366 2.62509H33.3882C33.5768 2.38219 33.7266 2.25537 33.6844 2.29352L33.6835 2.29245C34.5825 1.49281 34.0169 0 32.8125 0C32.2104 0 31.9601 0.353555 31.9405 0.331571C31.7687 0.484231 30.2603 1.88131 30.1899 3.89165C30.1575 4.81894 30.4349 6.20527 31.9405 7.54353C32.4858 8.02817 33.3151 7.97272 33.7935 7.43443C34.275 6.89269 34.2262 6.06302 33.6845 5.5815C33.5595 5.47043 33.449 5.36001 33.3512 5.25001H34.1366C37.025 5.25001 39.3749 7.59988 39.3749 10.4883V34.1368C39.3749 37.0252 37.025 39.3751 34.1366 39.3751H7.8632C4.9748 39.3751 2.62492 37.0252 2.62492 34.1368V10.4884C2.62492 7.9682 4.41403 5.85844 6.78876 5.36133C7.02369 6.04088 7.47823 6.79934 8.31544 7.54353C8.56556 7.76575 8.87678 7.8751 9.18694 7.8751C10.3859 7.8751 10.9625 6.38442 10.0594 5.58166C9.47668 5.06372 9.19154 4.56136 9.18752 4.04612C9.17981 3.06412 10.163 2.19975 10.0594 2.2936L10.0585 2.29253C10.9575 1.49289 10.392 8.20314e-05 9.18752 8.20314e-05C8.58541 8.20314e-05 8.33513 0.353637 8.31553 0.331653C8.17747 0.454372 7.21516 1.34646 6.77801 2.70039C2.95395 3.23064 0 6.52076 0 10.4885V34.137C0 38.4728 3.52752 42.0003 7.86329 42.0003H34.1367C38.4725 42.0003 42 38.4728 42 34.137V10.4884C42 6.15252 38.4725 2.62509 34.1366 2.62509Z" fill="black"/>
<path d="M24.0655 7.54357C24.6109 8.02821 25.44 7.97284 25.9185 7.43455C26.4 6.89281 26.3512 6.06315 25.8095 5.58162C25.2267 5.06368 24.9416 4.56132 24.9376 4.04608C24.9299 3.06408 25.913 2.19972 25.8095 2.29356C25.7994 2.28224 26.25 1.96986 26.25 1.31263C26.25 0.183547 24.9097 -0.417497 24.0665 0.33268C24.0543 0.318981 22.3125 1.87717 22.3125 4.03484C22.3125 4.92455 22.6167 6.25568 24.0655 7.54357Z" fill="black"/>
<path d="M16.1904 7.54357C16.7357 8.02821 17.5649 7.97284 18.0434 7.43455C18.5249 6.89281 18.4761 6.06315 17.9344 5.58162C17.3516 5.06368 17.0665 4.56132 17.0625 4.04608C17.0548 3.06408 18.0379 2.19972 17.9344 2.29356C17.9243 2.28224 18.3749 1.96986 18.3749 1.31263C18.3749 0.183547 17.0346 -0.417497 16.1914 0.33268C16.1792 0.318981 14.4374 1.87717 14.4374 4.03484C14.4374 4.92455 14.7415 6.25568 16.1904 7.54357Z" fill="black"/>
<path d="M35.4374 11.8125C35.4374 11.0877 34.8498 10.5 34.1249 10.5H7.87488C7.14997 10.5 6.56238 11.0877 6.56238 11.8125C6.56238 12.5373 7.14997 13.125 7.87488 13.125H34.1249C34.8498 13.125 35.4374 12.5374 35.4374 11.8125Z" fill="black"/>
<path d="M29.4001 16.0126C24.5301 19.6651 20.7944 27.0706 19.2436 30.5126L14.0531 25.322C13.5406 24.8095 12.7095 24.8095 12.197 25.322C11.6843 25.8346 11.6843 26.6656 12.197 27.1782L18.7595 33.7408C19.4292 34.4103 20.5639 34.1695 20.9089 33.2932C20.9516 33.1849 25.2392 22.4145 30.975 18.1125C31.5549 17.6776 31.6725 16.8549 31.2375 16.275C30.8027 15.6952 29.9801 15.5776 29.4001 16.0126Z" fill="black"/>
</svg>
