<svg width="25" height="25" viewBox="0 0 25 25" fill="none" xmlns="http://www.w3.org/2000/svg">
<path d="M4.80518 22.345C7.01509 24.0819 9.6758 25 12.5 25C15.7462 25 18.8197 23.7636 21.1539 21.5193C23.6337 19.1388 25 15.9358 25 12.5C25 5.60741 19.3926 0 12.5 0C5.60741 0 0 5.60741 0 12.5C0 16.3757 1.75259 19.965 4.80518 22.345ZM12.5 1.78571C18.4082 1.78571 23.2143 6.59223 23.2143 12.5C23.2143 15.4449 22.0433 18.1906 19.9166 20.2314C17.9164 22.1549 15.2823 23.2143 12.5 23.2143C10.08 23.2143 7.80071 22.4282 5.90598 20.939C3.28759 18.8973 1.78571 15.8216 1.78571 12.5C1.78571 6.59223 6.59223 1.78571 12.5 1.78571Z" fill="#1F8189"/>
<path d="M8.38364 14.4712L7.71748 18.3539C7.66034 18.6887 7.79766 19.0274 8.07275 19.2271C8.34873 19.4276 8.7123 19.4533 9.0131 19.2951L12.5001 17.4619L15.986 19.2951C16.1169 19.3636 16.2598 19.3975 16.4019 19.3975C16.5868 19.3975 16.7708 19.3399 16.9269 19.2271C17.2015 19.0274 17.3393 18.6887 17.2818 18.3539L16.6165 14.4712L19.4372 11.7211C19.6805 11.484 19.7677 11.1291 19.663 10.806C19.5575 10.483 19.2785 10.2471 18.9419 10.1982L15.0444 9.63191L13.3005 6.09977C12.9993 5.48941 11.9996 5.4903 11.6992 6.09977L9.95623 9.632L6.05828 10.1983C5.72167 10.2472 5.4423 10.483 5.33721 10.8061C5.23212 11.1292 5.3198 11.4841 5.56301 11.7212L8.38364 14.4712ZM10.6773 11.3318C10.9685 11.2895 11.2196 11.1068 11.35 10.8431L12.5001 8.512L13.651 10.8431C13.781 11.1068 14.0321 11.2895 14.3233 11.3318L16.8955 11.7055L15.0339 13.5204C14.8237 13.7253 14.7278 14.0208 14.7776 14.3104L15.2161 16.8725L12.9155 15.6627C12.7856 15.5942 12.6426 15.5603 12.5001 15.5603C12.3576 15.5603 12.2145 15.5943 12.0846 15.6627L9.78364 16.8725L10.2235 14.3104C10.2728 14.0209 10.1769 13.7253 9.96676 13.5204L8.10516 11.7055L10.6773 11.3318Z" fill="#1F8189"/>
</svg>
