<svg width="27" height="27" viewBox="0 0 27 27" fill="none" xmlns="http://www.w3.org/2000/svg">
<path d="M26.7444 25.5316L19.7733 18.6719C21.5988 16.6885 22.7204 14.0655 22.7204 11.1791C22.7195 5.00468 17.6338 0 11.3598 0C5.08573 0 0 5.00468 0 11.1791C0 17.3536 5.08573 22.3583 11.3598 22.3583C14.0706 22.3583 16.5569 21.4207 18.5099 19.8618L25.508 26.7486C25.849 27.0845 26.4026 27.0845 26.7436 26.7486C27.0853 26.4127 27.0853 25.8675 26.7444 25.5316ZM11.3598 20.6383C6.05125 20.6383 1.74786 16.4033 1.74786 11.1791C1.74786 5.95498 6.05125 1.71998 11.3598 1.71998C16.6683 1.71998 20.9717 5.95498 20.9717 11.1791C20.9717 16.4033 16.6683 20.6383 11.3598 20.6383Z" fill="#1F8189"/>
</svg>
